<?xml version="1.0" encoding="utf-8"?>
<svg viewBox="0 0 500 500" xmlns="http://www.w3.org/2000/svg" xmlns:bx="https://boxy-svg.com">
  <circle style="stroke: rgb(0, 0, 0);" transform="matrix(1.710834, 0.149962, -0.148298, 1.744789, -159.771317, -158.372284)" cx="257.6253712829648" cy="214.12353544593623" r="52.480771186458036"/>
  <circle style="stroke: rgb(255, 255, 255); fill-rule: nonzero; fill: rgb(255, 255, 255); paint-order: fill;" transform="matrix(-0.980207, 0.885348, -0.8829, -1.008071, 786.982605, 126.059204)" cx="299.2081085582722" cy="197.5730116796036" r="34.45563056685645"/>
  <path d="M 250.191 250.177 m -242.624 0 a 242.624 243.967 0 1 0 485.248 0 a 242.624 243.967 0 1 0 -485.248 0 Z M 250.191 250.177 m -145.575 0 a 145.575 146.38 0 0 1 291.15 0 a 145.575 146.38 0 0 1 -291.15 0 Z" style="stroke: rgb(0, 0, 0);" bx:shape="ring 250.191 250.177 145.575 146.38 242.624 243.967 1@6bd619b0"/>
  <path d="M 250.719 251.038 m -146.881 0 a 146.881 146.623 0 1 0 293.762 0 a 146.881 146.623 0 1 0 -293.762 0 Z M 250.719 251.038 m -88.128 0 a 88.128 87.973 0 0 1 176.256 0 a 88.128 87.973 0 0 1 -176.256 0 Z" style="stroke: rgb(255, 255, 255); fill: rgb(255, 255, 255);" bx:shape="ring 250.719 251.038 88.128 87.973 146.881 146.623 1@b34e0c82"/>
</svg>